<svg xmlns="http://www.w3.org/2000/svg" width="65.196" height="65.196" viewBox="0 0 65.196 65.196">
  <path id="Icon_awesome-user-circle" data-name="Icon awesome-user-circle" d="M32.6.562a32.6,32.6,0,1,0,32.6,32.6A32.592,32.592,0,0,0,32.6.562Zm0,12.618A11.567,11.567,0,1,1,21.031,24.748,11.567,11.567,0,0,1,32.6,13.181Zm0,45.216a25.188,25.188,0,0,1-19.256-8.964,14.655,14.655,0,0,1,12.947-7.86,3.216,3.216,0,0,1,.933.145,17.4,17.4,0,0,0,5.376.907,17.337,17.337,0,0,0,5.376-.907,3.216,3.216,0,0,1,.933-.145,14.655,14.655,0,0,1,12.947,7.86A25.188,25.188,0,0,1,32.6,58.4Z" transform="translate(0 -0.563)" fill="#f48221"/>
</svg>
