<svg xmlns="http://www.w3.org/2000/svg" width="19" height="19" viewBox="0 0 19 19">
  <g id="vuesax_outline_logout" data-name="vuesax/outline/logout" transform="translate(-748 -444)">
    <g id="logout" transform="translate(748 444)">
      <path id="Vector" d="M5.658,16.24h-.1C2.012,16.24.3,14.856.01,11.757a.6.6,0,0,1,.542-.648.608.608,0,0,1,.654.538c.231,2.483,1.412,3.408,4.356,3.408h.1c3.247,0,4.4-1.139,4.4-4.356V5.542c0-3.218-1.149-4.356-4.4-4.356h-.1c-2.96,0-4.14.941-4.356,3.471a.6.6,0,0,1-.654.538A.6.6,0,0,1,0,4.554C.273,1.407,1.988,0,5.554,0h.1C9.575,0,11.25,1.66,11.25,5.542V10.7C11.25,14.579,9.575,16.24,5.658,16.24Z" transform="translate(6.354 1.38)" fill="#c34328"/>
      <path id="Vector-2" data-name="Vector" d="M9.677,1.2H.6A.6.6,0,0,1,0,.6.6.6,0,0,1,.6,0H9.677a.6.6,0,0,1,.6.6A.6.6,0,0,1,9.677,1.2Z" transform="translate(2.29 8.902)" fill="#c34328"/>
      <path id="Vector-3" data-name="Vector" d="M3.269,6.54a.592.592,0,0,1-.423-.176L.174,3.692a.6.6,0,0,1,0-.846L2.846.174a.6.6,0,1,1,.846.846l-2.25,2.25,2.25,2.25a.6.6,0,0,1,0,.846A.579.579,0,0,1,3.269,6.54Z" transform="translate(1.398 6.231)" fill="#c34328"/>
      <path id="Vector-4" data-name="Vector" d="M0,0H19V19H0Z" fill="none" opacity="0"/>
    </g>
  </g>
</svg>
